<?xml version="1.0" standalone="no"?>
<!DOCTYPE svg PUBLIC "-//W3C//DTD SVG 20010904//EN"
 "http://www.w3.org/TR/2001/REC-SVG-20010904/DTD/svg10.dtd">
<svg version="1.0" xmlns="http://www.w3.org/2000/svg"
 width="300.000000pt" height="300.000000pt" viewBox="0 0 300.000000 300.000000"
 preserveAspectRatio="xMidYMid meet">
<metadata>
Created by potrace 1.11, written by Peter Selinger 2001-2013
</metadata>
<g transform="translate(0.000000,300.000000) scale(0.100000,-0.100000)"
fill="#000000" stroke="none">
<path d="M1375 2349 c-341 -47 -623 -303 -710 -643 -31 -121 -29 -320 4 -436
66 -228 216 -415 422 -527 59 -32 180 -77 239 -88 73 -14 248 -13 326 2 389
73 682 410 697 802 17 425 -262 786 -681 882 -61 14 -221 18 -297 8z m64 -168
c7 -5 11 -13 7 -19 -3 -6 8 -13 26 -17 18 -4 38 -15 44 -23 10 -14 14 -14 28
-3 9 7 16 20 16 28 0 28 35 9 37 -20 2 -26 0 -28 -27 -22 -25 6 -32 3 -42 -19
-6 -15 -23 -29 -37 -32 -14 -3 -31 -7 -36 -9 -6 -1 -16 -20 -22 -40 -14 -44 0
-75 33 -75 29 0 84 -20 84 -31 0 -5 3 -8 8 -8 26 4 42 -3 42 -20 0 -11 7 -27
16 -36 22 -22 46 -2 38 31 -4 14 -2 24 5 24 5 0 15 9 21 21 9 17 8 23 -6 33
-11 9 -14 18 -8 27 4 8 7 25 5 38 -2 21 0 23 26 18 58 -12 84 -27 94 -56 l11
-30 34 19 34 19 22 -40 c13 -22 33 -42 45 -45 12 -3 30 -15 40 -26 17 -19 17
-20 -10 -40 -19 -14 -45 -20 -86 -21 -42 -2 -65 -7 -80 -21 -32 -29 -25 -40 9
-15 33 25 42 22 46 -16 2 -20 -5 -28 -42 -46 -24 -13 -44 -29 -44 -36 0 -7
-11 -18 -24 -22 -13 -5 -26 -17 -30 -26 -3 -9 -10 -14 -15 -10 -13 8 -32 -29
-22 -41 14 -14 -6 -53 -32 -65 -33 -15 -50 -44 -34 -61 16 -16 22 -74 8 -82
-9 -6 -24 24 -26 49 -1 24 -115 54 -115 31 0 -8 -13 -10 -36 -8 -59 7 -81 -35
-75 -143 2 -32 29 -59 61 -61 25 -2 33 4 46 27 14 27 33 37 47 23 3 -4 2 -14
-3 -24 -5 -9 -11 -29 -14 -44 -4 -23 -2 -27 17 -26 40 4 47 0 59 -26 9 -20 9
-27 -1 -33 -19 -12 3 -49 36 -62 21 -8 24 -12 14 -22 -10 -9 -15 -9 -24 3 -7
8 -21 20 -32 26 -11 6 -27 24 -35 40 -9 16 -22 30 -28 30 -7 1 -18 2 -26 3 -7
0 -26 13 -41 27 -20 18 -35 24 -54 21 -16 -3 -42 4 -71 21 -53 29 -70 48 -70
75 0 11 -25 48 -55 82 -30 35 -55 70 -55 78 0 8 -7 18 -16 21 -20 8 -12 -21
24 -84 l26 -45 -27 28 c-15 15 -27 35 -27 43 0 7 -5 14 -10 14 -6 0 -9 3 -8 8
5 12 -40 82 -56 88 -8 3 -27 24 -42 47 -24 36 -28 53 -29 119 -1 56 2 75 11
71 28 -10 22 17 -8 38 -35 24 -78 68 -78 79 0 15 59 87 111 136 97 91 166 127
189 99 10 -12 14 -12 27 0 8 8 24 15 35 15 17 0 18 2 8 15 -7 9 -20 13 -29 10
-12 -5 -13 -3 -5 5 18 18 49 7 52 -18 3 -21 8 -23 43 -19 26 3 45 0 54 -9 15
-16 29 -19 20 -5 -3 6 2 14 11 19 19 10 11 32 -12 32 -8 0 -14 7 -14 15 0 16
27 20 49 6z m316 -1094 c-5 -21 -5 -21 6 1 15 27 19 27 65 2 26 -15 40 -18 49
-10 12 10 43 -8 87 -52 10 -10 26 -18 36 -18 20 0 -32 -51 -104 -101 -79 -54
-254 -122 -271 -105 -3 3 -2 16 4 28 7 16 7 28 0 39 -8 13 -4 24 17 50 25 29
27 38 22 86 -3 29 -2 53 3 53 5 0 23 13 41 30 35 32 54 31 45 -3z"/>
</g>
</svg>
