<?xml version="1.0" standalone="no"?>
<!DOCTYPE svg PUBLIC "-//W3C//DTD SVG 20010904//EN"
 "http://www.w3.org/TR/2001/REC-SVG-20010904/DTD/svg10.dtd">
<svg version="1.0" xmlns="http://www.w3.org/2000/svg"
 width="194.000000pt" height="194.000000pt" viewBox="0 0 194.000000 194.000000"
 preserveAspectRatio="xMidYMid meet">
<metadata>
Created by potrace 1.11, written by Peter Selinger 2001-2013
</metadata>
<g transform="translate(0.000000,194.000000) scale(0.100000,-0.100000)"
fill="#000000" stroke="none">
<path d="M821 1504 c-269 -72 -447 -353 -398 -629 38 -211 191 -379 401 -440
74 -22 210 -21 290 0 190 50 343 208 392 405 23 91 15 232 -18 321 -62 168
-207 299 -383 345 -65 18 -215 17 -284 -2z m116 -102 c28 -29 54 -35 73 -17
16 14 18 14 23 -5 4 -16 0 -20 -18 -20 -13 0 -25 -7 -29 -15 -3 -8 -12 -15
-20 -15 -20 0 -48 -43 -41 -61 3 -8 26 -21 51 -28 26 -8 52 -24 61 -37 20 -31
33 -31 33 0 0 13 6 26 13 29 9 3 9 8 1 16 -6 7 -9 23 -6 37 4 23 8 25 36 20
17 -4 32 -10 34 -14 10 -28 20 -34 41 -23 19 11 23 8 39 -18 9 -17 22 -31 28
-31 6 0 17 -6 23 -14 16 -19 -13 -36 -61 -36 -18 0 -40 -5 -48 -11 -12 -8 -10
-9 8 -4 19 5 22 3 22 -19 0 -14 -6 -26 -12 -26 -23 -1 -103 -82 -100 -101 2
-10 -8 -25 -22 -35 -23 -14 -25 -22 -21 -58 4 -38 4 -39 -7 -14 -12 27 -46 43
-76 34 -10 -2 -29 -7 -43 -10 -22 -5 -28 -13 -31 -43 -7 -53 6 -83 36 -83 13
0 26 7 30 15 3 8 12 15 20 15 12 0 14 -5 6 -26 -13 -34 -13 -34 15 -34 14 0
26 -6 26 -12 1 -7 3 -20 4 -28 1 -8 3 -21 4 -27 0 -7 8 -13 17 -13 8 0 12 -5
9 -10 -8 -13 -52 19 -60 43 -4 9 -14 17 -24 17 -10 0 -26 9 -35 19 -9 10 -25
17 -35 14 -23 -6 -91 34 -91 54 0 8 -19 39 -42 68 -43 55 -64 68 -33 21 10
-14 13 -26 8 -26 -6 0 -18 18 -28 41 -10 22 -26 46 -35 52 -30 23 -50 66 -50
112 0 29 4 45 13 45 6 1 1 11 -13 23 -54 47 -55 52 -18 97 44 56 122 112 150
109 29 -3 60 10 52 22 -3 5 -1 9 4 9 6 0 12 -6 15 -14 7 -18 75 -26 81 -9 3 7
1 15 -4 18 -13 8 -13 25 0 25 5 0 17 -8 27 -18z m264 -700 c36 -9 88 -41 89
-53 0 -4 -17 -22 -37 -39 -40 -36 -121 -76 -170 -86 -31 -6 -32 -5 -31 27 0
19 7 42 15 51 10 11 14 29 11 48 -4 24 1 35 20 51 14 10 34 17 46 14 11 -2 37
-8 57 -13z"/>
</g>
</svg>
