<?xml version="1.0" encoding="utf-8"?>
<!-- Generator: Adobe Illustrator 21.0.2, SVG Export Plug-In . SVG Version: 6.00 Build 0)  -->
<svg version="1.1" id="Layer_1" xmlns="http://www.w3.org/2000/svg" xmlns:xlink="http://www.w3.org/1999/xlink" x="0px" y="0px"
	 viewBox="0 0 642.459 106.31" style="enable-background:new 0 0 642.459 106.31;" xml:space="preserve">
<style type="text/css">
	.st0{fill:#2B3845;}
	.st1{fill:#2B3845;stroke:#2B3845;stroke-miterlimit:10;}
	.st2{fill:url(#SVGID_1_);}
	.st3{opacity:0.1;fill:#FFFFFF;}
	.st4{opacity:0.2;fill:#FFFFFF;}
	.st5{opacity:0.4;}
	.st6{fill:#FFFFFF;}
	.st7{opacity:0.4;fill:#FFFFFF;}
	.st8{opacity:0.3;fill:#FFFFFF;}
</style>
<g>
	<path class="st0" d="M139.405,85.508V29.619h2.977c0.936,0,1.479,0.469,1.629,1.404l0.506,8.089
		c2.171-3.108,4.662-5.617,7.47-7.527c2.809-1.91,5.973-2.865,9.493-2.865c4.081,0,7.349,1.179,9.802,3.539
		c2.452,2.359,4.109,5.636,4.971,9.83c0.674-2.283,1.619-4.269,2.836-5.954c1.217-1.685,2.612-3.079,4.185-4.185
		c1.572-1.104,3.286-1.918,5.14-2.443c1.854-0.524,3.754-0.786,5.701-0.786c2.771,0,5.261,0.459,7.471,1.376
		c2.209,0.918,4.081,2.275,5.617,4.073c1.535,1.797,2.715,4.007,3.539,6.628c0.824,2.622,1.236,5.616,1.236,8.987v35.724h-5.336
		V49.784c0-5.467-1.179-9.633-3.539-12.498c-2.359-2.865-5.729-4.298-10.111-4.298c-1.947,0-3.811,0.357-5.589,1.067
		c-1.779,0.712-3.352,1.77-4.718,3.174c-1.368,1.404-2.453,3.155-3.258,5.252c-0.806,2.098-1.208,4.532-1.208,7.302v35.724h-5.392
		V49.784c0-5.429-1.077-9.586-3.23-12.47c-2.154-2.883-5.308-4.325-9.465-4.325c-3.033,0-5.842,0.899-8.425,2.696
		c-2.584,1.798-4.887,4.289-6.909,7.471v42.353H139.405z"/>
	<path class="st0" d="M251.97,28.72c4.007,0,7.592,0.683,10.757,2.05c3.164,1.368,5.832,3.305,8.004,5.814
		c2.171,2.509,3.828,5.533,4.971,9.071c1.142,3.539,1.713,7.499,1.713,11.88c0,4.381-0.571,8.333-1.713,11.852
		c-1.143,3.521-2.8,6.535-4.971,9.043c-2.172,2.51-4.84,4.437-8.004,5.786c-3.165,1.348-6.75,2.022-10.757,2.022
		c-4.007,0-7.593-0.673-10.757-2.022c-3.165-1.348-5.841-3.276-8.032-5.786c-2.19-2.508-3.857-5.523-4.999-9.043
		c-1.142-3.519-1.713-7.471-1.713-11.852c0-4.381,0.571-8.341,1.713-11.88c1.142-3.539,2.809-6.563,4.999-9.071
		c2.191-2.509,4.868-4.446,8.032-5.814C244.377,29.403,247.962,28.72,251.97,28.72z M251.97,82.025c3.332,0,6.244-0.57,8.735-1.713
		c2.49-1.143,4.568-2.78,6.235-4.915c1.665-2.135,2.911-4.709,3.735-7.724c0.823-3.014,1.236-6.394,1.236-10.139
		c0-3.707-0.413-7.077-1.236-10.111c-0.824-3.033-2.07-5.626-3.735-7.779c-1.667-2.153-3.745-3.81-6.235-4.971
		c-2.491-1.16-5.402-1.741-8.735-1.741c-3.333,0-6.244,0.581-8.734,1.741c-2.491,1.161-4.57,2.818-6.235,4.971
		c-1.667,2.154-2.921,4.746-3.764,7.779c-0.843,3.034-1.264,6.403-1.264,10.111c0,3.745,0.421,7.125,1.264,10.139
		c0.843,3.015,2.097,5.589,3.764,7.724c1.665,2.135,3.744,3.772,6.235,4.915C245.726,81.455,248.637,82.025,251.97,82.025z"/>
	<g>
		<path class="st0" d="M293.142,92.641c0,3.034-0.73,5.374-2.19,7.021c-1.46,1.649-3.707,2.471-6.74,2.471
			c-0.75,0-1.367-0.047-1.854-0.14c-0.487-0.093-0.889-0.168-1.208-0.224c-0.318-0.056-0.57-0.056-0.758,0
			c-0.187,0.056-0.337,0.253-0.45,0.59l-0.28,2.695c0.824,0.413,1.666,0.712,2.527,0.899c0.862,0.187,1.835,0.282,2.921,0.282
			c2.247,0,4.203-0.347,5.87-1.039c1.665-0.693,3.051-1.649,4.157-2.865c1.104-1.217,1.937-2.65,2.5-4.298
			c0.562-1.647,0.843-3.445,0.843-5.392V29.619h-5.337V92.641z"/>
		<path class="st0" d="M300.36,8.414c-0.28-0.618-0.655-1.151-1.123-1.601c-0.469-0.45-1.003-0.805-1.601-1.067
			c-0.6-0.261-1.236-0.393-1.91-0.393s-1.311,0.132-1.91,0.393c-0.6,0.263-1.123,0.618-1.573,1.067
			c-0.449,0.449-0.806,0.983-1.067,1.601c-0.263,0.618-0.393,1.264-0.393,1.938s0.13,1.301,0.393,1.882
			c0.261,0.581,0.618,1.096,1.067,1.544c0.45,0.45,0.973,0.806,1.573,1.067c0.599,0.263,1.236,0.393,1.91,0.393
			s1.31-0.13,1.91-0.393c0.598-0.261,1.132-0.618,1.601-1.067c0.468-0.449,0.843-0.964,1.123-1.544
			c0.282-0.581,0.422-1.208,0.422-1.882S300.642,9.032,300.36,8.414z"/>
	</g>
	<path class="st0" d="M339.651,28.72c4.006,0,7.591,0.683,10.756,2.05c3.165,1.368,5.833,3.305,8.004,5.814s3.829,5.533,4.972,9.071
		c1.141,3.539,1.713,7.499,1.713,11.88c0,4.381-0.571,8.333-1.713,11.852c-1.143,3.521-2.801,6.535-4.972,9.043
		c-2.171,2.51-4.839,4.437-8.004,5.786c-3.165,1.348-6.75,2.022-10.756,2.022c-4.007,0-7.593-0.673-10.757-2.022
		s-5.84-3.276-8.032-5.786c-2.191-2.508-3.858-5.523-4.999-9.043c-1.143-3.519-1.713-7.471-1.713-11.852
		c0-4.381,0.57-8.341,1.713-11.88c1.141-3.539,2.808-6.563,4.999-9.071c2.191-2.509,4.867-4.446,8.032-5.814
		C332.058,29.403,335.643,28.72,339.651,28.72z M339.651,82.025c3.332,0,6.244-0.57,8.734-1.713c2.49-1.143,4.568-2.78,6.235-4.915
		c1.665-2.135,2.912-4.709,3.736-7.724c0.823-3.014,1.236-6.394,1.236-10.139c0-3.707-0.413-7.077-1.236-10.111
		c-0.824-3.033-2.071-5.626-3.736-7.779c-1.667-2.153-3.745-3.81-6.235-4.971c-2.49-1.16-5.402-1.741-8.734-1.741
		c-3.334,0-6.244,0.581-8.734,1.741c-2.491,1.161-4.57,2.818-6.235,4.971c-1.667,2.154-2.921,4.746-3.764,7.779
		c-0.843,3.034-1.265,6.403-1.265,10.111c0,3.745,0.422,7.125,1.265,10.139c0.843,3.015,2.097,5.589,3.764,7.724
		c1.665,2.135,3.744,3.772,6.235,4.915C333.407,81.455,336.317,82.025,339.651,82.025z"/>
	<path class="st1" d="M388.07,51.806v33.702h-1.348V6.87h17.75c8.576,0,15.156,1.854,19.744,5.561
		c4.586,3.707,6.881,9.343,6.881,16.907c0,3.258-0.646,6.263-1.938,9.015c-1.292,2.753-3.118,5.121-5.476,7.106
		c-2.36,1.985-5.168,3.539-8.426,4.662c-3.258,1.124-6.852,1.685-10.785,1.685H388.07z M388.07,50.683h16.401
		c3.857,0,7.34-0.552,10.448-1.657s5.757-2.621,7.948-4.55c2.191-1.928,3.885-4.185,5.083-6.769
		c1.199-2.583,1.798-5.373,1.798-8.369c0-7.002-2.106-12.31-6.319-15.924c-4.213-3.614-10.532-5.421-18.958-5.421H388.07V50.683z"/>
	<path class="st1" d="M464.011,29.563c3.857,0,7.285,0.683,10.281,2.05c2.996,1.368,5.513,3.286,7.555,5.757
		c2.042,2.471,3.584,5.458,4.635,8.959c1.048,3.502,1.572,7.386,1.572,11.655c0,4.269-0.524,8.136-1.572,11.599
		c-1.051,3.464-2.593,6.432-4.635,8.903c-2.042,2.471-4.559,4.372-7.555,5.7c-2.996,1.33-6.424,1.995-10.281,1.995
		c-3.895,0-7.329-0.664-10.306-1.995c-2.977-1.329-5.487-3.229-7.527-5.7c-2.042-2.471-3.585-5.439-4.634-8.903
		c-1.048-3.463-1.572-7.33-1.572-11.599c0-4.269,0.524-8.153,1.572-11.655c1.048-3.502,2.592-6.488,4.634-8.959
		c2.04-2.471,4.55-4.39,7.527-5.757C456.682,30.246,460.116,29.563,464.011,29.563z M464.011,85.059
		c3.745,0,7.041-0.655,9.887-1.966s5.214-3.146,7.107-5.505c1.889-2.359,3.313-5.204,4.266-8.537
		c0.957-3.332,1.432-7.021,1.432-11.066c0-4.044-0.475-7.742-1.432-11.093c-0.954-3.351-2.377-6.225-4.266-8.622
		c-1.892-2.396-4.26-4.26-7.107-5.589c-2.846-1.329-6.142-1.995-9.887-1.995c-3.782,0-7.087,0.666-9.913,1.995
		c-2.828,1.329-5.187,3.193-7.078,5.589c-1.891,2.397-3.314,5.271-4.269,8.622c-0.954,3.351-1.432,7.049-1.432,11.093
		c0,4.045,0.478,7.734,1.432,11.066c0.955,3.333,2.379,6.179,4.269,8.537c1.891,2.359,4.25,4.195,7.078,5.505
		C456.924,84.404,460.229,85.059,464.011,85.059z"/>
	<path class="st1" d="M503.556,85.508V30.462h0.337c0.524,0,0.786,0.3,0.786,0.898l0.169,15.278c0.786-2.733,1.76-5.158,2.921-7.274
		c1.16-2.115,2.528-3.904,4.1-5.364c1.573-1.46,3.36-2.564,5.364-3.314c2.004-0.748,4.26-1.123,6.77-1.123
		c1.796,0,3.462,0.187,4.998,0.561c1.536,0.375,3.014,0.899,4.439,1.573l-0.226,0.449c-0.075,0.113-0.14,0.216-0.197,0.309
		c-0.056,0.094-0.178,0.14-0.364,0.14c-0.189,0-0.497-0.093-0.928-0.28c-0.43-0.187-0.992-0.394-1.685-0.618
		c-0.693-0.225-1.536-0.43-2.526-0.618c-0.993-0.187-2.164-0.281-3.511-0.281c-4.906,0-8.876,1.611-11.909,4.831
		c-3.032,3.22-5.429,7.789-7.189,13.705v36.174H503.556z"/>
	<path class="st1" d="M561.186,86.407c-3.221,0-5.749-0.881-7.582-2.641c-1.836-1.76-2.753-4.663-2.753-8.706V33.944h-9.1
		c-0.524,0-0.786-0.187-0.786-0.562v-0.337l9.886-0.225l0.45-22.131c0-0.187,0.047-0.365,0.14-0.533
		c0.093-0.168,0.233-0.253,0.422-0.253h0.337V32.82h18.76v1.124h-18.76v41.117c0,1.873,0.233,3.454,0.702,4.746
		c0.468,1.292,1.114,2.34,1.938,3.145c0.823,0.806,1.777,1.396,2.865,1.771c1.085,0.375,2.246,0.561,3.482,0.561
		c1.573,0,2.95-0.242,4.129-0.73c1.179-0.486,2.18-1.01,3.005-1.572c0.823-0.562,1.489-1.086,1.995-1.572
		c0.504-0.486,0.87-0.731,1.094-0.731c0.149,0,0.3,0.076,0.45,0.226l0.226,0.224c-0.562,0.75-1.246,1.452-2.051,2.107
		c-0.806,0.655-1.685,1.217-2.639,1.685c-0.955,0.468-1.967,0.832-3.034,1.096C563.294,86.275,562.235,86.407,561.186,86.407z"/>
	<path class="st1" d="M620.165,85.508c-0.524,0-0.786-0.3-0.786-0.899l-0.337-8.931c-1.573,1.648-3.145,3.136-4.717,4.465
		c-1.574,1.33-3.239,2.453-4.999,3.37c-1.761,0.919-3.652,1.629-5.674,2.135c-2.022,0.506-4.268,0.759-6.739,0.759
		c-1.649,0-3.307-0.253-4.972-0.759c-1.667-0.506-3.174-1.31-4.521-2.415c-1.349-1.105-2.444-2.528-3.287-4.269
		c-0.843-1.741-1.263-3.866-1.263-6.374c0-2.471,0.721-4.691,2.162-6.656c1.441-1.966,3.651-3.642,6.628-5.028
		c2.977-1.385,6.73-2.48,11.262-3.286c4.53-0.805,9.904-1.282,16.121-1.432V49.11c0-2.883-0.318-5.467-0.955-7.751
		c-0.637-2.284-1.573-4.213-2.808-5.786c-1.236-1.573-2.79-2.781-4.663-3.623s-4.044-1.264-6.515-1.264
		c-1.947,0-3.707,0.206-5.28,0.618c-1.573,0.413-2.977,0.918-4.213,1.517c-1.236,0.6-2.313,1.255-3.229,1.966
		c-0.919,0.712-1.714,1.367-2.388,1.966c-0.675,0.6-1.217,1.105-1.629,1.517c-0.413,0.412-0.712,0.618-0.899,0.618
		c-0.151,0-0.337-0.113-0.562-0.338l-0.224-0.225c2.695-2.845,5.485-5.018,8.37-6.515c2.883-1.497,6.235-2.247,10.054-2.247
		c2.808,0,5.232,0.449,7.274,1.348c2.04,0.899,3.736,2.191,5.083,3.876c1.349,1.684,2.34,3.735,2.977,6.151
		c0.637,2.415,0.955,5.14,0.955,8.172v36.399H620.165z M596.911,85.283c2.583,0,4.923-0.299,7.021-0.899
		c2.097-0.597,4.024-1.403,5.786-2.415c1.76-1.01,3.398-2.18,4.914-3.511c1.518-1.328,2.987-2.724,4.41-4.184V57.311
		c-11.795,0.374-20.549,1.844-26.26,4.409c-5.711,2.565-8.566,6.189-8.566,10.869c0,2.209,0.366,4.109,1.096,5.701
		c0.73,1.592,1.685,2.903,2.865,3.931c1.179,1.03,2.528,1.798,4.046,2.304C593.738,85.03,595.301,85.283,596.911,85.283z"/>
	<path class="st1" d="M641.959,4.623v80.885h-1.349V4.623H641.959z"/>
</g>
<linearGradient id="SVGID_1_" gradientUnits="userSpaceOnUse" x1="21.9513" y1="91.1561" x2="92.702" y2="0.5994">
	<stop  offset="0" style="stop-color:#4DAF4E"/>
	<stop  offset="0.6224" style="stop-color:#4B9CA2"/>
	<stop  offset="1" style="stop-color:#478FCC"/>
</linearGradient>
<polygon class="st2" points="91.915,0 82.309,1.134 50.16,17.492 33.566,39.404 11.752,43.507 8.301,46.384 0,66.619 2.563,76.008 
	7.551,76.002 20.515,69.908 23.353,70.24 32.803,77.4 32.804,77.397 42.154,84.679 43.206,87.336 40.659,101.432 41.939,106.253 
	51.671,106.31 69.083,93.074 70.973,88.998 69.316,66.863 86.21,45.183 93.729,9.903 92.353,0.326 "/>
<polygon class="st3" points="86.21,45.183 93.729,9.903 92.353,0.326 91.915,0 82.309,1.134 50.16,17.492 "/>
<polygon class="st3" points="86.074,8.151 82.309,1.134 50.16,17.492 68.204,31.352 86.282,45.133 93.801,9.853 "/>
<polygon class="st4" points="71.944,6.408 50.16,17.492 86.21,45.183 91.025,22.591 77.791,18.883 "/>
<polygon class="st4" points="82.309,1.134 91.915,0 92.164,0.187 32.804,77.397 23.353,70.24 20.515,69.908 7.551,76.002 
	2.563,76.008 0,66.619 8.301,46.384 11.752,43.507 33.566,39.404 50.16,17.492 "/>
<g class="st5">
	<polygon class="st6" points="43.206,87.336 41.939,106.253 69.083,93.074 70.973,88.998 69.316,66.863 42.154,84.679 	"/>
</g>
<polygon class="st4" points="69.316,66.863 70.973,88.998 41.939,106.253 "/>
<polygon class="st7" points="2.563,76.007 20.515,69.908 33.566,39.404 11.752,43.507 8.301,46.384 "/>
<polygon class="st4" points="7.552,76.002 2.563,76.007 33.566,39.404 20.515,69.908 "/>
<polygon class="st4" points="32.804,77.397 33.566,39.404 68.204,31.352 69.316,66.863 "/>
<polygon class="st8" points="32.803,77.4 33.566,39.404 50.16,17.492 51.437,53.13 "/>
<polygon class="st4" points="32.803,77.4 69.316,66.863 86.21,45.183 51.437,53.13 "/>
<g>
</g>
<g>
</g>
<g>
</g>
<g>
</g>
<g>
</g>
<g>
</g>
</svg>
