<?xml version="1.0" encoding="utf-8"?>
<!-- Generator: Adobe Illustrator 21.0.0, SVG Export Plug-In . SVG Version: 6.00 Build 0)  -->
<svg version="1.1" id="Layer_1" xmlns="http://www.w3.org/2000/svg" xmlns:xlink="http://www.w3.org/1999/xlink" x="0px" y="0px"
	 viewBox="0 0 131.39999 100" style="enable-background:new 0 0 131.39999 100;" xml:space="preserve">
<style type="text/css">
	.st0{fill:#FFFFFF;}
</style>
<title>gab-logo</title>
<path class="st0" d="M105.4,15c-4.8,0-8.7,3.9-8.7,8.7s3.9,8.7,8.7,8.7s8.7-3.9,8.7-8.7S110.2,15,105.4,15L105.4,15z M103.1,23
	c-1.3,0-2.4-1.1-2.4-2.4s1.1-2.4,2.4-2.4s2.4,1.1,2.4,2.4C105.4,21.9,104.4,23,103.1,23L103.1,23z"/>
<path class="st0" d="M25.4,14.2c-4.8,0-8.7,3.9-8.7,8.7s3.9,8.7,8.7,8.7s8.7-3.9,8.7-8.7S30.2,14.2,25.4,14.2L25.4,14.2z M23.1,22.2
	c-1.3,0-2.4-1.1-2.4-2.4s1.1-2.4,2.4-2.4s2.4,1.1,2.4,2.4C25.5,21.2,24.4,22.2,23.1,22.2L23.1,22.2z"/>
<path class="st0" d="M123.1,38c7.9-9.8,6.4-24.2-3.4-32.1S95.6-0.5,87.6,9.3c-0.5,0.6-1,1.3-1.4,1.9c-6.4-0.8-8,14.8-20.3,14.8h-0.4
	c-12.3,0-13.9-15.6-20.4-14.8C38.7,0.4,24.7-3.3,13.8,3.1S-0.7,23.6,5.7,34.4c0.7,1.3,1.6,2.4,2.6,3.5C-14.2,65,10.5,100,65.6,100
	h0.1C120.9,100,145.7,65.1,123.1,38z M76.2,46.2c0.5-0.7,1.4-1,2.2-0.5c0.2,0.1,0.4,0.3,0.5,0.5l3.4,5.5h-9.5L76.2,46.2z M52.5,46.2
	c0.5-0.7,1.4-1,2.2-0.5c0.2,0.1,0.4,0.3,0.5,0.5l3.4,5.5h-9.5L52.5,46.2z M14.6,35c-6.7-6-7.4-16.3-1.4-23s16.3-7.4,23-1.4
	c3.5,3.1,5.5,7.5,5.5,12.2c0,4-1.4,7.8-4.1,10.8C31.6,40.3,21.3,41,14.6,35z M95.5,69.9c-6.2,4.5-25.3,9.6-29.8,9.6
	S42,74.4,35.9,69.9c-0.1-0.1-0.2-0.3-0.1-0.5c0.1-0.2,0.3-0.3,0.5-0.2c4.5,1.7,16.5,5.6,29.4,5.6s24.9-3.9,29.4-5.6
	c0.2-0.1,0.4,0,0.5,0.1C95.7,69.5,95.7,69.8,95.5,69.9z M117.6,34.4c-6,6.7-16.3,7.4-23,1.4c-6.7-6-7.4-16.3-1.4-23s16.3-7.4,23-1.4
	c3.5,3.1,5.5,7.5,5.5,12.2C121.7,27.6,120.2,31.4,117.6,34.4z"/>
<path class="st0" d="M65.7,7.1c0,0-12.6,0-18.9,3.1c4.7,0,7.9,12.6,18.9,12.6s14.2-12.6,18.9-12.6C78.3,7.1,65.7,7.1,65.7,7.1z"/>
</svg>
