<?xml version="1.0" encoding="utf-8"?>
<!-- Generator: Adobe Illustrator 21.0.0, SVG Export Plug-In . SVG Version: 6.00 Build 0)  -->
<svg version="1.1"
	 id="svg845" inkscape:version="1.0 (4035a4f, 2020-05-01)" sodipodi:docname="gettr2.svg" xmlns:cc="http://creativecommons.org/ns#" xmlns:dc="http://purl.org/dc/elements/1.1/" xmlns:inkscape="http://www.inkscape.org/namespaces/inkscape" xmlns:rdf="http://www.w3.org/1999/02/22-rdf-syntax-ns#" xmlns:sodipodi="http://sodipodi.sourceforge.net/DTD/sodipodi-0.dtd" xmlns:svg="http://www.w3.org/2000/svg"
	 xmlns="http://www.w3.org/2000/svg" xmlns:xlink="http://www.w3.org/1999/xlink" x="0px" y="0px" viewBox="0 0 83.7 32.7"
	 style="enable-background:new 0 0 83.7 32.7;" xml:space="preserve">
<style type="text/css">
	.st0{fill:#FFFFFF;}
</style>
<sodipodi:namedview  bordercolor="#666666" borderopacity="1" gridtolerance="10" guidetolerance="10" id="namedview847" inkscape:current-layer="svg845" inkscape:cx="41.836151" inkscape:cy="16.358572" inkscape:pageopacity="0" inkscape:pageshadow="2" inkscape:window-height="755" inkscape:window-maximized="1" inkscape:window-width="1280" inkscape:window-x="0" inkscape:window-y="23" inkscape:zoom="8.8440258" objecttolerance="10" pagecolor="#ffffff" showgrid="false">
	</sodipodi:namedview>
<path id="path833" class="st0" d="M51.5,3.3c-0.2,1.3-0.8,2.4-1.8,3.3c0.4,0.1,0.9-0.1,1.2-0.4c-0.1,0.5-0.3,1-0.5,1.5
	c-0.5,0.8-1.2,1.5-2,2c-1.2,0.7-2.5,0.9-3.8,1.1c-0.9,0.1-1.9,0.3-2.5,0.9c-0.3,0.3-0.5,0.8-0.6,1.2c-1.1-1.6-1.9-3.5-1.7-5.1
	c0.3-2.2,2.6-3.9,5.2-5c2.7-1.1,5.6-1.5,7.6-2.9c-0.2,0.7-0.5,1.5-0.9,2.1C51,2.8,50.5,3.4,50,3.9C50.6,3.9,51,3.7,51.5,3.3z"/>
<path id="path835" class="st0" d="M24.1,19h7.8v-3.5H19.4v17.2h12.4V29H24v-3.3h6.8v-3.5H24V19H24.1z"/>
<path id="path837" class="st0" d="M50.8,15.5V19h4.4v13.7h4.7V19h4.4v-3.5H50.8z"/>
<path id="path839" class="st0" d="M48.9,15.5H33.7l2,3.5H39v13.7h4.7V19h3.2L48.9,15.5z"/>
<path id="path841" class="st0" d="M79.7,26.2c2.3-1.2,3.4-3.9,2.8-6.4s-2.9-4.3-5.4-4.4c-3.2,0-6.4,0-9.6,0c0,5.7,0,11.5,0,17.2
	c1.6,0,3.1,0,4.7,0c0-1.9,0-3.8,0-5.7c0.8,0,1.7,0,2.5,0c1.2,1.9,2.4,3.8,3.6,5.7c1.8,0,3.7,0,5.5,0C82.4,30.6,81,28.4,79.7,26.2z
	 M75.8,23.4c-1.2,0-2.5,0-3.7,0c0-1.5,0-3,0-4.4c1.3,0,2.5,0,3.8,0c1.2,0.1,2.1,1.1,2.1,2.3C78,22.5,77,23.4,75.8,23.4z"/>
<path id="path843" class="st0" d="M9,18.8c-1.7,0.3-3.2,1.5-3.8,3.1c-0.7,1.6-0.5,3.5,0.5,4.9c1.2,1.7,3.4,2.5,5.3,1.8
	c0-1.7,0-3.4,0-5.1c1.6,0,3.1,0,4.7,0c0,2.7,0,5.3,0,8c-2.6,1.1-5.4,1.5-8.2,1.1c-2.1-0.3-4-1.4-5.3-3C0.7,28,0,25.9,0,23.9
	s0.8-4.1,2.1-5.7c1.4-1.6,3.3-2.6,5.3-3c2.8-0.4,5.6-0.1,8.2,1.1c-0.6,1.1-1.3,2.2-1.9,3.3C12.3,18.7,10.7,18.5,9,18.8z"/>
</svg>
