<?xml version="1.0" encoding="utf-8"?>
<!-- Generator: Adobe Illustrator 23.0.2, SVG Export Plug-In . SVG Version: 6.00 Build 0)  -->
<svg version="1.1" id="Layer_1" xmlns="http://www.w3.org/2000/svg" xmlns:xlink="http://www.w3.org/1999/xlink" x="0px" y="0px"
	 viewBox="0 0 1588 825" style="enable-background:new 0 0 1588 825;" xml:space="preserve">
<style type="text/css">
	.st0{fill-rule:evenodd;clip-rule:evenodd;fill:#FFFFFF;}
</style>
<g id="Page-1">
	<g id="bw">
		<g id="mewe-logo" transform="translate(0.000000, 2.000000)">
			<path class="st0" d="M365.5,74.6c0,40.7-33,73.8-73.8,73.8c-40.7,0-73.7-33-73.7-73.8s33-73.8,73.7-73.8
				C332.5,0.8,365.5,33.9,365.5,74.6L365.5,74.6z"/>
			<path class="st0" d="M724.4,74.8c0,40.7-33,73.8-73.7,73.8s-73.7-33-73.7-73.8S610,1,650.7,1S724.4,34.1,724.4,74.8L724.4,74.8z"
				/>
			<path class="st0" d="M1148.6,74.8c0,40.7-33,73.8-73.8,73.8c-40.7,0-73.8-33-73.8-73.8S1034,1,1074.8,1
				C1115.6,1,1148.6,34.1,1148.6,74.8L1148.6,74.8z"/>
			<path class="st0" d="M1572.5,74.8c0,40.7-33,73.8-73.7,73.8c-40.7,0-73.8-33-73.8-73.8S1458,1,1498.8,1
				C1539.5,1,1572.5,34.1,1572.5,74.8L1572.5,74.8z"/>
			<path class="st0" d="M0.9,276.8c0-28.5,22.6-51.9,51.9-51.9h10.9c22.6,0,37.7,11.7,47.7,27.6l177.4,277.9l178.3-278.7
				c10.9-17.6,26-26.8,46.8-26.8h10.9c29.3,0,51.9,23.4,51.9,51.9v490.4c0,28.5-22.6,51.1-51.9,51.1c-27.6,0-51.1-23.4-51.1-51.1
				V415.7l-143,215.1c-10.9,16.7-24.3,26.8-43.5,26.8c-18.4,0-31.8-10.1-42.7-26.8L102.2,417.4v350.7c0,28.5-22.6,50.2-51.1,50.2
				c-28.4,0-50.2-21.7-50.2-50.2V276.8L0.9,276.8z"/>
			<path class="st0" d="M653.2,293.9c-2.5-5.8-4.2-13.4-4.2-20.1c0-28.5,24.3-50.2,52.7-50.2c25.1,0,44.4,15.9,51.1,37.7
				l134.8,402.6L1019.8,263c8.4-24.3,25.9-41,51.9-41h7.5c25.9,0,44.4,16.8,51.9,41l132.2,400.9l134.8-403.5
				c7.6-20.9,25.1-36.8,50.2-36.8c27.6,0,51.1,21.8,51.1,49.4c0,6.7-2.5,15.1-5,20.9l-173.3,485.5c-9.2,26-28.5,42.7-53.6,42.7h-10
				c-25.1,0-43.6-15.9-52.7-42.7l-130.6-382.5L943.6,779.4c-9.2,26.8-28.4,42.7-53.6,42.7h-10c-25.1,0-43.5-15.9-53.6-42.7
				L653.2,293.9L653.2,293.9z"/>
		</g>
	</g>
</g>
</svg>
