<?xml version="1.0" encoding="utf-8"?>
<!-- Generator: Adobe Illustrator 27.4.0, SVG Export Plug-In . SVG Version: 6.00 Build 0)  -->
<svg version="1.1" id="Layer_1" xmlns="http://www.w3.org/2000/svg" xmlns:xlink="http://www.w3.org/1999/xlink" x="0px" y="0px"
	 viewBox="0 0 129.8 99.1" style="enable-background:new 0 0 129.8 99.1;" xml:space="preserve">
<style type="text/css">
	.st0{fill:#FFFFFF;}
</style>
<path class="st0" d="M80.9,0c-17.8,0-33,8.2-41.5,20.7c-0.7,1-1.9,3.3-3.5,3.3c-7.8,0.1-8.3-9.6-8.5-18.1c0-1.3-1.1-2.3-2.4-2.3
	L2.4,3.4C1.1,3.4,0,4.5,0,5.9C0.5,26.8,4.4,41,29.7,46.7c1.4,0.3,2.4,1.6,2.4,3c0,8.7,0,38.4,0,47c0,1.3,1.1,2.4,2.4,2.4h21.9
	c1.3,0,2.4-1.1,2.4-2.4V48.1c0-10.8,7.7-23,22.2-23c13.8,0,22.2,12.2,22.2,23v48.6c0,1.3,1.1,2.4,2.4,2.4h21.9
	c1.3,0,2.4-1.1,2.4-2.4V44.5C129.8,19.6,108.5,0,80.9,0z"/>
</svg>
