<?xml version="1.0" encoding="utf-8"?>
<!-- Generator: Adobe Illustrator 21.0.0, SVG Export Plug-In . SVG Version: 6.00 Build 0)  -->
<svg version="1.1" id="Layer_1" xmlns="http://www.w3.org/2000/svg" xmlns:xlink="http://www.w3.org/1999/xlink" x="0px" y="0px"
	 viewBox="0 0 240 240" style="enable-background:new 0 0 240 240;" xml:space="preserve">
<style type="text/css">
	.st0{fill:#FFFFFF;}
</style>
<path class="st0" d="M40,0C18,0,0,18,0,40h140c32,0,60,28,60,60s-28,60-60,60h-40c-11,0-20,9-20,20v20h60c56,0,100-44,100-100
	S196,0,140,0H40z M30,80C14,80,0,94,0,110v90c0,22,18,40,40,40V140c0-11,9-20,20-20h80c11,0,20-9,20-20s-9-20-20-20H30z"/>
</svg>
