<?xml version="1.0" encoding="utf-8"?>
<!-- Generator: Adobe Illustrator 23.0.2, SVG Export Plug-In . SVG Version: 6.00 Build 0)  -->
<svg version="1.1"
	 id="Layer_1" xmlns:cc="http://creativecommons.org/ns#" xmlns:dc="http://purl.org/dc/elements/1.1/" xmlns:inkscape="http://www.inkscape.org/namespaces/inkscape" xmlns:rdf="http://www.w3.org/1999/02/22-rdf-syntax-ns#" xmlns:sodipodi="http://sodipodi.sourceforge.net/DTD/sodipodi-0.dtd" xmlns:svg="http://www.w3.org/2000/svg"
	 xmlns="http://www.w3.org/2000/svg" xmlns:xlink="http://www.w3.org/1999/xlink" x="0px" y="0px" viewBox="0 0 341.9 355.1"
	 style="enable-background:new 0 0 341.9 355.1;" xml:space="preserve">
<style type="text/css">
	.st0{fill:#FFFFFF;}
	.st1{fill-rule:evenodd;clip-rule:evenodd;fill:#FFFFFF;}
</style>
<sodipodi:namedview  bordercolor="#666666" borderopacity="1" fit-margin-bottom="0" fit-margin-left="0" fit-margin-right="0" fit-margin-top="0" gridtolerance="10" guidetolerance="10" id="namedview13" inkscape:current-layer="g5" inkscape:cx="96.8" inkscape:cy="24.098682" inkscape:pageopacity="0" inkscape:pageshadow="2" inkscape:window-height="705" inkscape:window-maximized="1" inkscape:window-width="1366" inkscape:window-x="-8" inkscape:window-y="-8" inkscape:zoom="1.43" objecttolerance="10" pagecolor="#ffffff" showgrid="false">
	</sodipodi:namedview>
<g id="g5" transform="translate(-3.2,-2.9634781)">
	<g id="g3767" transform="translate(1.5258789e-6,-6.5591486e-8)">
		<g id="g3762">
			<path id="path7" inkscape:connector-curvature="0" class="st0" d="M84.9,329.2c3.6,5.1,8,8.7,13,11.6
				c25.3,14.5,68.7,0.7,134.4-37.6l0,0c66.5-38.3,99.7-68.7,100.5-97.6c0-4.3-0.7-8-2.2-12.3C288.7,250.4,148.5,321.2,84.9,329.2
				 M90.7,25.6c57.1,10.1,200.9,89.6,240,142.4c1.4-3.6,1.4-8,2.2-11.6c0-28.9-32.5-60-99.7-98.3l0,0
				c-65.8-37.6-108.4-52-134.4-37.6C95.7,22,93.5,23.5,90.7,25.6L90.7,25.6z M45.1,30.7c8.7-5.1,19.5-7.2,31.1-6.5
				c5.1-6.5,10.1-10.8,16.6-14.5c29.6-16.6,76.6-2.2,146,38.3l0,0c70.8,41.2,106.2,74.4,106.2,109.1c0,8-2.2,15.9-5.8,23.9
				c4.3,8,5.8,16.6,5.8,24.6c0,34-36.1,67.2-106.2,107.7l0,0c-70.1,40.5-116.4,54.9-146.7,37.6c-8-4.3-15.2-11.6-21-21
				c-10.1,0-18.8-2.9-26.7-7.2c-29.6-16.6-41.2-63.6-41.2-146S15.5,47.3,45.1,30.7z M69,35.8c-6.5,0.7-13,2.2-18.1,5.1
				C25.6,55.3,15.5,98.6,15.5,176.7c0,77.3,9.4,121.4,35.4,135.9c4.3,2.2,9.4,4.3,15.2,5.1C38.6,262.7,38.6,87.8,69,35.8z M98.6,69
				c-49.1,27.5-49.1,195.1-0.7,222.6c50.6,28.9,187.2-70.8,187.2-114.2C285.8,121,146.3,42.3,98.6,69z"/>
			<path id="path9" inkscape:connector-curvature="0" class="st1" d="M191.8,189.7c-6.5,3.6-13.7,8-20.2,11.6
				c-6.5,3.6-13.7,8-20.2,11.6c-21,12.3-20.2,13-20.2-11.6c0-8,0-15.2,0-23.1c0-8,0-15.2,0-23.1c0-23.9-1.4-23.9,20.2-11.6
				c6.5,3.6,13.7,8,20.2,11.6c6.5,3.6,13.7,8,20.2,11.6C212.8,178.9,212.8,178.1,191.8,189.7"/>
		</g>
	</g>
</g>
</svg>
