<?xml version="1.0" encoding="utf-8"?>
<!-- Generator: Adobe Illustrator 21.0.0, SVG Export Plug-In . SVG Version: 6.00 Build 0)  -->
<svg version="1.1" id="Layer_1" xmlns="http://www.w3.org/2000/svg" xmlns:xlink="http://www.w3.org/1999/xlink" x="0px" y="0px"
	 viewBox="0 0 448 512" style="enable-background:new 0 0 448 512;" xml:space="preserve">
<style type="text/css">
	.st0{fill:#FFFFFF;}
</style>
<path class="st0" d="M448,209.9c-44,0.1-87-13.6-122.8-39.3v178.7c0,89.8-72.8,162.5-162.6,162.5S0.1,439,0.1,349.3
	S73,186.7,162.7,186.8c7.4,0,14.9,0.5,22.3,1.5v89.9c-39.3-12.4-81.2,9.5-93.6,48.8s9.5,81.2,48.8,93.6s81.2-9.5,93.6-48.8
	c2.3-7.2,3.4-14.8,3.4-22.4V0h88c-0.1,7.4,0.6,14.9,1.9,22.2l0,0c6.2,33,25.7,62,53.9,80.2c19.9,13.1,43.2,20.1,67,20.1L448,209.9
	L448,209.9z"/>
</svg>
